<svg width="434" height="434" viewBox="0 0 434 434" fill="none" xmlns="http://www.w3.org/2000/svg">
<style>
  #circle {
    fill: white;
    stroke: white; 
  }
  #letterm {
    fill: white;
  }
  #lettert {
    fill: white;
  }
  @media(prefers-color-scheme: light) {
    #circle {
      fill: black;
      stroke: black;
    }
    #letterm {
      fill: black;
    }
    #lettert {
      fill: black;
    }
  }
</style>
<path id="circle" d="M79.2622 288.683L79.1343 289.065L79.307 289.429C94.1173 320.653 118.196 346.681 148.393 363.871C182.007 383.005 221.166 390.031 259.335 383.775C297.503 377.519 332.371 358.36 358.117 329.497C383.863 300.633 398.93 263.812 400.802 225.179C402.674 186.547 391.238 148.441 368.403 117.224C345.568 86.0063 312.715 63.5661 275.331 53.6494C237.946 43.7326 198.29 46.9394 162.985 62.7344C130.216 77.3946 103.034 102.076 85.287 133.117L85.0388 133.551L85.2374 134.011L90.3794 145.896L91.2245 147.849L92.1887 145.952C108.449 113.954 135.193 88.5025 167.956 73.8452C200.718 59.1878 237.518 56.212 272.21 65.4145C306.902 74.617 337.388 95.441 358.578 124.41C379.769 153.379 390.381 188.74 388.644 224.59C386.907 260.44 372.926 294.61 349.034 321.394C325.142 348.179 292.785 365.958 257.366 371.763C221.946 377.568 185.607 371.049 154.415 353.292C123.223 335.536 99.0651 307.618 85.9746 274.198L84.9698 271.633L84.0952 274.245L79.2622 288.683Z" />
<path id="letterm" d="M78 149L33 294H63L85 227.5L115 296.5L146 227.5L166.5 294H197L151.5 149L115 233.5L78 149Z"/>
<path id="lettert" d="M295 151.5H184.5V177.5H227V294.5H253V177.5H295V151.5Z"/>
</svg>
